<svg xmlns="http://www.w3.org/2000/svg" viewBox="0 0 500 500"><g id="freepik--background-simple--inject-52"><g><path d="M477.96,231.03c-3.05-59.89-28.03-119.62-73.05-160.01C334.12,7.52,196.23,8.88,123.58,68.62c-25.2,20.72-40.03,48.1-45.83,79.86-6.2,33.99,1.91,70.92-11.43,103.66-11.46,28.11-39.71,45.35-50.18,73.79-12.5,33.96-5.82,77.1,21.32,102.34,34.76,32.33,96.8,44.79,142.51,49.5,139.61,14.39,286.81-66.71,297.72-218.28,.68-9.46,.77-18.97,.29-28.44Z" style="fill:#E9F9FF;"></path><path d="M477.96,231.03c-3.05-59.89-28.03-119.62-73.05-160.01C334.12,7.52,196.23,8.88,123.58,68.62c-25.2,20.72-40.03,48.1-45.83,79.86-6.2,33.99,1.91,70.92-11.43,103.66-11.46,28.11-39.71,45.35-50.18,73.79-12.5,33.96-5.82,77.1,21.32,102.34,34.76,32.33,96.8,44.79,142.51,49.5,139.61,14.39,286.81-66.71,297.72-218.28,.68-9.46,.77-18.97,.29-28.44Z" style="fill:#fff; opacity:.7;"></path></g></g><g id="freepik--City--inject-52"><g><polyline points="401.66 190.36 401.66 84.17 412.92 84.17 412.92 73.22 446.71 73.22 446.71 81.98 455.56 81.98 455.56 263.71 479.7 263.71 479.7 295.46 494.98 295.46" style="fill:none; stroke:#263238; stroke-miterlimit:10;"></polyline><polyline points="292.25 204.59 292.25 122.48 315.58 122.48 315.58 142.19 326.84 142.19 326.84 113.73 351.78 113.73 351.78 236.34 372.7 236.34 372.7 280.13 389.59 280.13 389.59 212.26 401.66 212.26 401.66 198.02" style="fill:none; stroke:#263238; stroke-miterlimit:10;"></polyline><polyline points="204.56 149.85 204.56 295.46 218.23 295.46 218.23 210.07 237.54 210.07 237.54 282.32 292.25 282.32 292.25 217.73" style="fill:none; stroke:#263238; stroke-miterlimit:10;"></polyline><polyline points="161.92 257.14 161.92 77.6 204.56 77.6 204.56 137.81" style="fill:none; stroke:#263238; stroke-miterlimit:10;"></polyline><polyline points="79.06 204.59 79.06 225.39 91.12 225.39 91.12 131.24 139.39 131.24 139.39 276.85 161.92 276.85 161.92 262.62" style="fill:none; stroke:#263238; stroke-miterlimit:10;"></polyline><polyline points="26.76 295.46 44.46 295.46 44.46 159.71 79.06 159.71 79.06 193.64" style="fill:none; stroke:#263238; stroke-miterlimit:10;"></polyline></g></g><g id="freepik--Clouds--inject-52"><g><path d="M454.26,37.28s-6.44-12.87-18.5-11.26c-12.07,1.61-13.68,13.68-16.89,14.48s-10.46-4.02-15.29-1.61c-4.83,2.41-8.04,8.04-8.04,8.04,0,0-6.44-2.41-11.26,0s-7.24,7.24-7.24,7.24h100.56s-.8-12.87-8.04-15.29c-7.24-2.41-12.07,4.83-15.29-1.61Z" style="fill:none; stroke:#263238; stroke-miterlimit:10;"></path><path d="M315.86,83.52s-4.76-9.51-13.68-8.33c-8.92,1.19-10.11,10.11-12.49,10.7-2.38,.59-7.73-2.97-11.3-1.19-3.57,1.78-5.95,5.95-5.95,5.95,0,0-4.76-1.78-8.33,0-3.57,1.78-5.35,5.35-5.35,5.35h74.34s-.59-9.51-5.95-11.3c-5.35-1.78-8.92,3.57-11.3-1.19Z" style="fill:none; stroke:#263238; stroke-miterlimit:10;"></path><path d="M64.02,49.26s-4.02-8.03-11.55-7.03c-7.53,1-8.54,8.54-10.55,9.04-2.01,.5-6.53-2.51-9.54-1-3.01,1.51-5.02,5.02-5.02,5.02,0,0-4.02-1.51-7.03,0-3.01,1.51-4.52,4.52-4.52,4.52h62.77s-.5-8.03-5.02-9.54c-4.52-1.51-7.53,3.01-9.54-1Z" style="fill:none; stroke:#263238; stroke-miterlimit:10;"></path></g></g><g id="freepik--Floor--inject-52"><line x1="22.4" y1="406.43" x2="479.75" y2="406.43" style="fill:none; stroke:#263238; stroke-miterlimit:10;"></line></g></svg>
