<svg xmlns="http://www.w3.org/2000/svg" viewBox="0 0 500 500"><g id="freepik--background-complete--inject-32"><path d="M51.52,406.92A24.74,24.74,0,0,0,41,403.29a7,7,0,0,0-5,.92,1,1,0,0,0-.52.91,1.11,1.11,0,0,0,.49.62,15.11,15.11,0,0,0,15.6,1.18" style="fill:#e0e0e0"></path><path d="M51.25,406.63a52.1,52.1,0,0,1-6.83-6,17.32,17.32,0,0,1-4.28-7.92,3.21,3.21,0,0,1,.34-2.65c5.44,4.25,9.72,9.75,10.77,16.58" style="fill:#e0e0e0"></path><path d="M51.47,406.88a24.75,24.75,0,0,1,.12-9,12.15,12.15,0,0,1,4.78-7.4c.94,2.2.53,4.73-.13,7a34.21,34.21,0,0,1-4.73,10" style="fill:#e0e0e0"></path><path d="M56.8,416.45a15.6,15.6,0,0,0-8.48,4.29,16.08,16.08,0,0,0-4.85,8.32c3.18-.19,5.88-2.43,7.83-4.95s3.31-5.27,5.46-7.62" style="fill:#e0e0e0"></path><path d="M58,418a20.91,20.91,0,0,1,2.42-19.78A25.21,25.21,0,0,1,58,418" style="fill:#e0e0e0"></path><path d="M65,426.37a15.14,15.14,0,0,0-14.46,8.32,1.12,1.12,0,0,0-.09,1.14,1.06,1.06,0,0,0,.95.28c2.85-.19,5.38-1.9,7.46-3.85s3.9-4.21,6.21-5.9" style="fill:#e0e0e0"></path><path d="M64.79,425.91a26.9,26.9,0,0,1-.27-15c.53-1.94,1.42-4,3.21-4.88a.62.62,0,0,1,.49-.09.65.65,0,0,1,.31.36,9.1,9.1,0,0,1,.76,4.32,27.19,27.19,0,0,1-.68,4.37c-.56,2.67-.86,5.53-2.33,7.84a15,15,0,0,0-.93,1.72c-.28.59-.28.79-.53,1.26" style="fill:#e0e0e0"></path><path d="M83.45,428.69a19.4,19.4,0,0,1,3.4-15.94c.24-.32.57-.66,1-.62.61.05.76.86.74,1.48a28.84,28.84,0,0,1-5.11,15.08" style="fill:#e0e0e0"></path><path d="M85.13,429.84a23.18,23.18,0,0,0,19-3.87,15.44,15.44,0,0,0-10.31-1.26,14.72,14.72,0,0,0-8.73,5.13" style="fill:#e0e0e0"></path><path d="M86.55,426.34a22,22,0,0,1,17.28-10,10.66,10.66,0,0,1-5.65,6.25,31.2,31.2,0,0,1-8.3,2.42c-1.1.22-2.61.45-3.33,1.32" style="fill:#e0e0e0"></path><path d="M83.81,409.35A51.09,51.09,0,0,0,86,399.23a16.9,16.9,0,0,0-2-10,22,22,0,0,0-.29,20.48" style="fill:#e0e0e0"></path><path d="M95.06,403.66c3.91-7.11,11.89-12.78,20-13.58-3.12,7.76-11.61,13.75-20,13.58" style="fill:#e0e0e0"></path><path d="M92.6,405.05c5.83.89,10.8,4.61,16.25,6.87a7.22,7.22,0,0,0,3.67.7,2.87,2.87,0,0,0,1.8-5.08,7.75,7.75,0,0,0-2.67-1.62c-5.93-2.47-12.3-2.53-18.55-1" style="fill:#e0e0e0"></path><path d="M89.23,409.14c1.32.38,1.77,1.06,2.81,1.95a30.38,30.38,0,0,0,12.32,6.33c.47.12,1.09.17,1.32-.26s-.05-.82-.31-1.15A17,17,0,0,0,97.93,411c-2.85-1.06-5.31-2.34-8.7-2.06" style="fill:#e0e0e0"></path><path d="M85.42,384.44a23.33,23.33,0,0,0,17.88,6.09,1.23,1.23,0,0,0,.81-.3c.45-.49-.09-1.24-.62-1.65-5.25-4.1-11.62-5.8-18.07-4.14" style="fill:#e0e0e0"></path><path d="M89.93,382.79a24.94,24.94,0,0,1,22.31-3.68,17.72,17.72,0,0,1-10.63,4.67,33.62,33.62,0,0,1-11.68-1" style="fill:#e0e0e0"></path><path d="M88.14,371.44c-.52-5.24-.18-9.38-.55-14.65,0-.42-.11-.93-.51-1.08s-1,.46-1.18,1a16.79,16.79,0,0,0,2.23,14.6" style="fill:#e0e0e0"></path><path d="M87.76,372a30.77,30.77,0,0,0,8.69-8.44c1.72-2.35,3.16-5.16,2.77-8.05A8.3,8.3,0,0,0,93,358.65a17.54,17.54,0,0,0-3.2,6.42c-.69,2.31-1.18,4.68-2,6.95" style="fill:#e0e0e0"></path><path d="M96.3,369.65A70,70,0,0,0,117.68,357c-2.55-1-5.48-.41-8,.62a25.32,25.32,0,0,0-13.46,11.93" style="fill:#e0e0e0"></path><path d="M90.16,374.89A43.77,43.77,0,0,0,102,375a50.41,50.41,0,0,0,11.08-3.68,1.3,1.3,0,0,0,.75-.58.82.82,0,0,0-.27-.94,2.28,2.28,0,0,0-.94-.45,20.54,20.54,0,0,0-12,.72,56.07,56.07,0,0,0-10.52,4.87" style="fill:#e0e0e0"></path><path d="M67.62,384.62a21,21,0,0,1-.19-17.38c1.64,2.5,1.84,5.67,1.54,8.64s-1.2,6-1.26,9" style="fill:#e0e0e0"></path><path d="M56.86,379.2a24.21,24.21,0,0,0-18,7.67A16.81,16.81,0,0,0,48.71,385a49.74,49.74,0,0,0,8.46-5.66" style="fill:#e0e0e0"></path><path d="M49.63,376.78c-3.29-.27-6.45-.68-9.62.29a11.54,11.54,0,0,0-7.33,6.22,17.43,17.43,0,0,0,9-1.7,52.2,52.2,0,0,0,7.93-4.81" style="fill:#e0e0e0"></path><path d="M60.34,376.89c-3-1.94-6-3.92-9.44-4.72s-7.44-.21-9.84,2.39c2.78,1.64,6.17,1.83,9.4,1.83s7.2,0,10.25,1" style="fill:#e0e0e0"></path><path d="M60.36,377c-5.06-5-7-13.89-4.94-20.68A31.59,31.59,0,0,1,60.36,377" style="fill:#e0e0e0"></path><path d="M74.27,363c1-2.22,1.62-4.55,2.48-6.8a19.68,19.68,0,0,1,3.54-6.28,9.27,9.27,0,0,1,6.26-3.24A25.22,25.22,0,0,1,74.39,363" style="fill:#e0e0e0"></path><path d="M71.75,365.9c-1.58-2.17-3.4-5.12-5.54-6.74a9.22,9.22,0,0,0-7.54-2,17.51,17.51,0,0,0,13.08,8.72" style="fill:#e0e0e0"></path><path d="M72.26,363.15a37.4,37.4,0,0,1-2.5-8.08A12.66,12.66,0,0,1,71,346.85c2.78,5.25,3.68,10.88,1.38,16.36" style="fill:#e0e0e0"></path><path d="M74.29,346.85c1.58-5.2,6.34-9,11.49-10.79a4.23,4.23,0,0,1,2-.31A1.75,1.75,0,0,1,89.27,337c.19.89-.54,1.68-1.23,2.27a39.14,39.14,0,0,1-13.75,7.59" style="fill:#e0e0e0"></path><path d="M74.35,342.59a37.37,37.37,0,0,1,1.5-9.94,12.58,12.58,0,0,1,6.26-7.55c.52,3.39-1,6.76-2.78,9.68s-4,5.67-5.06,8.92" style="fill:#e0e0e0"></path><path d="M74.27,344.9c-1.3-3.79-1.44-8.61-3.71-11.91-1.58-2.31-4.13-3.88-5.49-6.33a9.61,9.61,0,0,0,.32,7.18,20.86,20.86,0,0,0,4.2,6c1.68,1.79,3.12,3.14,4.68,5" style="fill:#e0e0e0"></path><path d="M74.29,456.59c-.1,0-.18-25.3-.19-56.5s.07-56.51.17-56.51.19,25.3.19,56.51S74.4,456.59,74.29,456.59Z" style="fill:#e0e0e0"></path><path d="M96.4,380.81a5.37,5.37,0,0,1-1,.35l-2.61.89c-2.21.75-5.24,1.84-8.54,3.19s-6.33,2.53-8.08,4a6,6,0,0,0-1.62,2.15c-.25.6-.3,1-.33.95a.74.74,0,0,1,0-.26,3.64,3.64,0,0,1,.19-.74,5.71,5.71,0,0,1,1.58-2.29,14.29,14.29,0,0,1,3.51-2.18c1.4-.65,3-1.33,4.61-2,3.3-1.36,6.35-2.41,8.58-3.1,1.12-.35,2-.6,2.66-.77A4.48,4.48,0,0,1,96.4,380.81Z" style="fill:#e0e0e0"></path><path d="M103.65,363s-.08.11-.27.29l-.81.76-3,2.75c-2.62,2.34-6.16,5.5-10.09,9s-7.34,6.85-9.69,9.37c-1.19,1.26-2.12,2.31-2.75,3l-.73.84c-.17.19-.27.29-.28.28a1.82,1.82,0,0,1,.22-.33l.68-.88c.6-.76,1.51-1.83,2.67-3.11a127.69,127.69,0,0,1,9.64-9.48c4-3.49,7.55-6.63,10.16-8.9l3.11-2.67.86-.71A1.84,1.84,0,0,1,103.65,363Z" style="fill:#e0e0e0"></path><path d="M85.2,379.35c-.1-.05.72-1.94,1.54-4.35s1.22-4.43,1.32-4.41a14.47,14.47,0,0,1-1,4.53,28.14,28.14,0,0,1-1.23,3A4.25,4.25,0,0,1,85.2,379.35Z" style="fill:#e0e0e0"></path><path d="M74.32,394.66a3.81,3.81,0,0,1-.61-.7l-1.55-2c-1.31-1.69-3.11-4-5.14-6.57s-3.88-4.84-5.23-6.49l-1.59-2a5.56,5.56,0,0,1-.55-.75,4,4,0,0,1,.66.66c.41.44,1,1.08,1.68,1.89,1.4,1.61,3.29,3.88,5.32,6.43s3.8,4.91,5,6.64c.63.87,1.13,1.57,1.47,2.07A5.3,5.3,0,0,1,74.32,394.66Z" style="fill:#e0e0e0"></path><path d="M69.47,388.44a9,9,0,0,1-2-3.8,10.88,10.88,0,0,1-.46-3.83h.16c-.07.29-.12.45-.15.44s0-.17,0-.47l.16,0a17.2,17.2,0,0,0,.65,3.72A28.08,28.08,0,0,0,69.47,388.44Z" style="fill:#e0e0e0"></path><path d="M63.21,380.57a6.35,6.35,0,0,0-1.42-.83,9.63,9.63,0,0,0-3.93-.31,25.54,25.54,0,0,0-4,.64,11.63,11.63,0,0,1-1.63.39,6,6,0,0,1,1.56-.64,18.06,18.06,0,0,1,4-.75,8.59,8.59,0,0,1,4.06.43A2.52,2.52,0,0,1,63.21,380.57Z" style="fill:#e0e0e0"></path><path d="M61.73,378.66c0,.06-.83-.33-2.17-.79a21.82,21.82,0,0,0-11-.84c-1.4.25-2.25.52-2.27.46s.2-.11.58-.25a13.58,13.58,0,0,1,1.64-.46,19.3,19.3,0,0,1,11.08.85,13.27,13.27,0,0,1,1.56.7A2.2,2.2,0,0,1,61.73,378.66Z" style="fill:#e0e0e0"></path><path d="M74.27,370.59a43.31,43.31,0,0,1-1.58-5.5,44.36,44.36,0,0,1-1.23-5.59A46.91,46.91,0,0,1,73,365,44,44,0,0,1,74.27,370.59Z" style="fill:#e0e0e0"></path><path d="M74.37,370.59a25.86,25.86,0,0,0-1.76-3.29A14.31,14.31,0,0,0,70,364.63a2.37,2.37,0,0,1,1,.51,8.2,8.2,0,0,1,1.88,1.95A7.27,7.27,0,0,1,74.37,370.59Z" style="fill:#e0e0e0"></path><path d="M74.29,443.1s-.11-.6-.39-1.68A25.29,25.29,0,0,0,72.21,437a60.63,60.63,0,0,0-9-12.64c-2-2.28-3.94-4.44-5.59-6.51a45.48,45.48,0,0,1-4-5.77,28.52,28.52,0,0,1-2-4.28c-.19-.53-.32-.94-.4-1.23a2,2,0,0,1-.1-.43s.22.58.63,1.61a32.58,32.58,0,0,0,2.11,4.2,48.9,48.9,0,0,0,4,5.69c1.66,2,3.6,4.19,5.61,6.48a57.55,57.55,0,0,1,8.93,12.77A21.87,21.87,0,0,1,74,441.39a12.33,12.33,0,0,1,.23,1.27A1.63,1.63,0,0,1,74.29,443.1Z" style="fill:#e0e0e0"></path><path d="M94.27,420.54a8.19,8.19,0,0,1-1,.59,20.76,20.76,0,0,0-2.72,1.79,32.19,32.19,0,0,0-3.57,3.25c-1.25,1.33-2.54,2.86-3.85,4.51-2.64,3.3-5.1,6.22-6.57,8.55-.75,1.16-1.29,2.14-1.65,2.82a7.43,7.43,0,0,1-.58,1.05,1.72,1.72,0,0,1,.1-.29c.08-.19.19-.47.35-.82a27.42,27.42,0,0,1,1.56-2.89,93.69,93.69,0,0,1,6.5-8.65c1.32-1.65,2.62-3.19,3.9-4.51a28.73,28.73,0,0,1,3.66-3.23,18.48,18.48,0,0,1,2.8-1.71c.35-.17.63-.28.82-.36A1,1,0,0,1,94.27,420.54Z" style="fill:#e0e0e0"></path><path d="M94.66,427.86a16.52,16.52,0,0,1-2.21.32,29.56,29.56,0,0,0-5.25,1,16,16,0,0,0-4.7,2.47c-1.08.84-1.59,1.53-1.64,1.49a1.72,1.72,0,0,1,.33-.51,8.07,8.07,0,0,1,1.15-1.18,14.15,14.15,0,0,1,4.75-2.61,23.4,23.4,0,0,1,5.34-.95A11.55,11.55,0,0,1,94.66,427.86Z" style="fill:#e0e0e0"></path><path d="M81.5,432.37c-.11-.07.89-1.59,1.66-3.64s.9-3.88,1-3.86a3.86,3.86,0,0,1,0,1.18,12.57,12.57,0,0,1-.65,2.8,13.3,13.3,0,0,1-1.28,2.57A3.5,3.5,0,0,1,81.5,432.37Z" style="fill:#e0e0e0"></path><path d="M100.74,400.88s-.11.08-.35.19l-1,.48c-.46.19-1,.44-1.63.77s-1.36.65-2.12,1.11l-1.2.68c-.42.25-.84.53-1.28.81-.89.54-1.78,1.2-2.73,1.88a46.92,46.92,0,0,0-10.53,10.89c-.64,1-1.28,1.89-1.79,2.8-.26.45-.53.87-.76,1.3L76.67,423c-.43.78-.74,1.52-1,2.15s-.53,1.2-.71,1.66l-.44,1.05a1.36,1.36,0,0,1-.18.37,2,2,0,0,1,.11-.39l.37-1.08c.16-.47.37-1,.66-1.69s.58-1.4,1-2.18l.63-1.25c.22-.44.48-.87.74-1.32.5-.92,1.13-1.85,1.77-2.84a49.88,49.88,0,0,1,4.84-5.93,48.91,48.91,0,0,1,5.77-5c1-.68,1.87-1.34,2.77-1.87.45-.27.87-.55,1.29-.79l1.23-.67c.77-.44,1.51-.76,2.15-1.07s1.2-.54,1.66-.72l1.07-.41A2,2,0,0,1,100.74,400.88Z" style="fill:#e0e0e0"></path><path d="M84.93,411.48a2.62,2.62,0,0,1,.87-1.3,5.49,5.49,0,0,1,3.5-1.34,9.61,9.61,0,0,1,3.69.72,4.86,4.86,0,0,1,1.39.68,8.46,8.46,0,0,1-1.47-.44,11.28,11.28,0,0,0-3.59-.59A5.66,5.66,0,0,0,86,410.38,10.15,10.15,0,0,0,84.93,411.48Z" style="fill:#e0e0e0"></path><path d="M82.57,413.92a13.31,13.31,0,0,0,1-3.24,12.9,12.9,0,0,0-.22-3.38,2.2,2.2,0,0,1,.41.94,6.76,6.76,0,0,1,.18,2.48,6.83,6.83,0,0,1-.74,2.37A2.34,2.34,0,0,1,82.57,413.92Z" style="fill:#e0e0e0"></path><path d="M56.82,446.73c.55,9.67,3.46,19.5,7.94,29.44H84.25c4.27-9.84,7-19.66,7.47-29.44Z" style="fill:#e0e0e0"></path><path d="M88.56,462.37c0,.11-6.42.19-14.33.19s-14.33-.08-14.33-.19,6.41-.18,14.33-.18S88.56,462.27,88.56,462.37Z" style="fill:#fafafa"></path><path d="M88.12,465.88c0,.1-6,.18-13.43.18s-13.43-.08-13.43-.18,6-.19,13.43-.19S88.12,465.78,88.12,465.88Z" style="fill:#fafafa"></path><path d="M65.08,453.08a56.09,56.09,0,0,1,0,9,53.15,53.15,0,0,1,0-9Z" style="fill:#fafafa"></path><path d="M75.52,453.08a60,60,0,0,1,0,9.29,56.87,56.87,0,0,1,0-9.29Z" style="fill:#fafafa"></path><path d="M85.32,453a62.5,62.5,0,0,1,0,9.48,62.5,62.5,0,0,1,0-9.48Z" style="fill:#fafafa"></path><path d="M91.1,453.08c0,.1-7.53.18-16.81.18s-16.81-.08-16.81-.18,7.53-.19,16.81-.19S91.1,453,91.1,453.08Z" style="fill:#fafafa"></path><path d="M436,395.09c-.08.1-.78-.32-1.57-.94s-1.34-1.22-1.26-1.33.79.32,1.57.95S436.11,395,436,395.09Z" style="fill:#e0e0e0"></path><path d="M457.34,363.22a24.62,24.62,0,0,0-.73-8.86c-.94-2.83-3.12-5.43-6-6-3.33-.69-6.75,1.41-8.61,4.26s-2.51,6.29-3.06,9.65a341,341,0,0,0-4.18,70.06l13.63,1.91C454.34,409.75,456.25,388.38,457.34,363.22Z" style="fill:#ebebeb"></path><path d="M448.68,348.22s0,.08-.06.22l-.22.62c-.22.58-.53,1.36-.91,2.35-.19.52-.44,1.07-.65,1.71l-.66,2.06-.76,2.37c-.22.86-.46,1.76-.71,2.7a120.28,120.28,0,0,0-2.63,13.49c-.74,5.13-1.22,10.8-1.6,16.77-.7,11.94-.81,22.78-1.11,30.62-.15,3.92-.28,7.09-.43,9.28-.07,1.06-.13,1.9-.17,2.52,0,.26,0,.48-.06.65a.74.74,0,0,1,0,.22,1.76,1.76,0,0,1,0-.22c0-.18,0-.39,0-.66,0-.62,0-1.46.08-2.52.09-2.19.17-5.36.27-9.28.22-7.84.28-18.68,1-30.64.38-6,.88-11.66,1.65-16.8a114.2,114.2,0,0,1,2.74-13.51c.26-.95.51-1.85.74-2.71l.8-2.36c.25-.74.49-1.43.7-2.06s.49-1.19.69-1.7l1-2.32c.11-.24.19-.44.27-.6S448.68,348.22,448.68,348.22Z" style="fill:#e0e0e0"></path><path d="M450,348.23a9.88,9.88,0,0,1,1.66,2.82,20.74,20.74,0,0,1,1.24,8.82c-.36,7.53-1,17.91-1.93,29.36s-1.9,21.82-2.7,29.31c-.4,3.74-.75,6.77-1,8.86-.13,1-.23,1.82-.31,2.41l-.09.62a.53.53,0,0,1-.05.21s0-.07,0-.21,0-.38,0-.63c.06-.6.13-1.4.22-2.42.21-2.14.5-5.16.85-8.87.72-7.5,1.67-17.86,2.57-29.31s1.62-21.84,2.07-29.34a21.46,21.46,0,0,0-1.07-8.74A19.78,19.78,0,0,0,450,348.23Z" style="fill:#e0e0e0"></path><path d="M459.4,383.51a7.82,7.82,0,0,1-2.59-.67,7.55,7.55,0,0,1-2.42-1.13,14.57,14.57,0,0,1,5,1.8Z" style="fill:#e0e0e0"></path><path d="M461,369.62a8.52,8.52,0,0,1-2.46,1.36,8,8,0,0,1-2.66.92,8.52,8.52,0,0,1,2.46-1.36A8,8,0,0,1,461,369.62Z" style="fill:#e0e0e0"></path><path d="M460.19,358.28a4.48,4.48,0,0,1-2,.1,4.33,4.33,0,0,1-2-.38,4.44,4.44,0,0,1,2-.1A4.25,4.25,0,0,1,460.19,358.28Z" style="fill:#e0e0e0"></path><path d="M446.12,351c-.11.08-.71-.67-1.33-1.66s-1-1.84-.92-1.92.71.68,1.33,1.66S446.24,350.94,446.12,351Z" style="fill:#e0e0e0"></path><path d="M441.47,357.87a7.89,7.89,0,0,1-3.86-.08c0-.14.87-.23,1.94-.21S441.48,357.73,441.47,357.87Z" style="fill:#e0e0e0"></path><path d="M438.14,371.59a4.91,4.91,0,0,1-2-.56c-1.07-.44-1.9-.89-1.85-1a4.52,4.52,0,0,1,2,.56C437.36,371,438.19,371.46,438.14,371.59Z" style="fill:#e0e0e0"></path><path d="M437.78,383.12c0,.13-.75.41-1.73.61s-1.81.27-1.84.14.75-.41,1.74-.61S437.75,383,437.78,383.12Z" style="fill:#e0e0e0"></path><path d="M436.21,402c0,.13-.8.39-1.84.58s-1.9.23-1.93.09.8-.39,1.84-.57A4,4,0,0,1,436.21,402Z" style="fill:#e0e0e0"></path><path d="M435.17,412.4c.06.12-.63.61-1.54,1.09s-1.7.78-1.76.66.62-.61,1.54-1.09S435.11,412.29,435.17,412.4Z" style="fill:#e0e0e0"></path><path d="M443.67,424.23a5.69,5.69,0,0,1-1.33-1.85,5.34,5.34,0,0,1-.92-2.09c.12-.07.72.76,1.34,1.85A5.35,5.35,0,0,1,443.67,424.23Z" style="fill:#e0e0e0"></path><path d="M446.13,404.58c.09.1-.58.9-1.49,1.8s-1.74,1.55-1.83,1.46.57-.91,1.49-1.81S446,404.48,446.13,404.58Z" style="fill:#e0e0e0"></path><path d="M445.58,394.27c-.09.09-.71-.41-1.38-1.13s-1.12-1.37-1-1.47.71.42,1.38,1.14S445.68,394.18,445.58,394.27Z" style="fill:#e0e0e0"></path><path d="M447.27,381.1c.1.09-.45.88-1.24,1.75s-1.51,1.52-1.61,1.43.46-.87,1.25-1.75S447.17,381,447.27,381.1Z" style="fill:#e0e0e0"></path><path d="M448.22,371.54c-.09.1-.87-.51-1.73-1.36s-1.49-1.61-1.39-1.71.87.52,1.73,1.36S448.32,371.45,448.22,371.54Z" style="fill:#e0e0e0"></path><path d="M450.09,358.62a5,5,0,0,1-.87,1.94c-.6,1-1.18,1.75-1.29,1.68s.27-.93.87-1.93S450,358.55,450.09,358.62Z" style="fill:#e0e0e0"></path><path d="M453.6,346.65a4.69,4.69,0,0,1-.77,1.94c-.55,1-1.08,1.76-1.2,1.7a4.69,4.69,0,0,1,.77-1.94C452.94,347.35,453.48,346.59,453.6,346.65Z" style="fill:#e0e0e0"></path><path d="M457.58,352.09c.06.12-.49.5-1.22.85s-1.37.53-1.43.41.49-.5,1.22-.85S457.52,352,457.58,352.09Z" style="fill:#e0e0e0"></path><path d="M457.68,395.09a5.4,5.4,0,0,1-2.67-.65A5.53,5.53,0,0,1,452.7,393a116.19,116.19,0,0,1,5,2.12Z" style="fill:#e0e0e0"></path><path d="M456.05,404.2c0,.13-.8.4-1.84.6a4,4,0,0,1-1.92.12c0-.13.79-.4,1.83-.6A4,4,0,0,1,456.05,404.2Z" style="fill:#e0e0e0"></path><path d="M454.05,419.81c-.08.11-1.12-.61-2.08-1.82a5.22,5.22,0,0,1-1.3-2.43,14.57,14.57,0,0,1,1.68,2.13A17.39,17.39,0,0,1,454.05,419.81Z" style="fill:#e0e0e0"></path><path d="M432.14,427c-.09-.11.47-.72,1.24-1.38s1.46-1.11,1.55-1-.47.72-1.24,1.38S432.23,427.06,432.14,427Z" style="fill:#e0e0e0"></path><path d="M425.84,392.87c-.89-2.77-2.55-6-5.46-6a4.84,4.84,0,0,0-4.09,2.74,10.1,10.1,0,0,0-1.1,5,130.26,130.26,0,0,0,6.25,36.3h10.64A126.61,126.61,0,0,0,425.84,392.87Z" style="fill:#ebebeb"></path><path d="M406.6,375.44c-1.49-5.95-5.93-9.17-11.08-9.47-4.71.83-6.53,5.46-7.09,10.2s.92,9.47,2.37,14l14,43.82,13.24-1.45C413.86,413,411.45,394.85,406.6,375.44Z" style="fill:#ebebeb"></path><path d="M420.38,386.83a13.25,13.25,0,0,0-.9,1.51,10,10,0,0,0-.5,4.7c.21,2,.44,4.46.78,7.13s.83,5.6,1.43,8.66c1.2,6.11,2.55,11.6,3.41,15.59.44,2,.77,3.63,1,4.75.09.52.16.95.22,1.3a1.6,1.6,0,0,1,0,.46,2.57,2.57,0,0,1-.14-.44c-.08-.35-.18-.77-.31-1.28-.28-1.19-.66-2.78-1.12-4.71-.95-4-2.36-9.45-3.56-15.58-.6-3.06-1.07-6-1.4-8.7-.17-1.34-.28-2.62-.39-3.82s-.22-2.31-.28-3.34a9.6,9.6,0,0,1,.67-4.8A4.32,4.32,0,0,1,420.38,386.83Z" style="fill:#e0e0e0"></path><path d="M395.71,365.6a18.87,18.87,0,0,0-1.6,2.15,15.06,15.06,0,0,0-2,6.92,31.91,31.91,0,0,0,1.63,10.66c1.17,3.94,2.44,8.27,3.78,12.8,2.64,9.08,5,17.29,6.78,23.29.83,2.95,1.51,5.36,2,7.08.21.8.39,1.44.52,1.93a5.49,5.49,0,0,1,.15.68,3.36,3.36,0,0,1-.25-.65l-.6-1.91c-.53-1.71-1.26-4.1-2.15-7-1.79-6-4.22-14.19-6.92-23.25-1.32-4.54-2.59-8.87-3.74-12.82a31.78,31.78,0,0,1-1.55-10.8,14.74,14.74,0,0,1,2.2-7A8.21,8.21,0,0,1,395.71,365.6Z" style="fill:#e0e0e0"></path><path d="M415.16,431.14a3.87,3.87,0,0,1-.3-.64c-.17-.42-.46-1-.75-1.86-.64-1.63-1.44-4-2.28-7s-1.67-6.63-2.47-10.68-1.61-8.5-2.49-13.17-1.95-9.07-3.14-13a70.25,70.25,0,0,0-3.86-10.2,52.58,52.58,0,0,0-3.57-6.43c-.45-.75-.86-1.28-1.11-1.67a3.82,3.82,0,0,1-.37-.59,3.64,3.64,0,0,1,.45.53c.27.37.71.89,1.19,1.62a47.13,47.13,0,0,1,3.72,6.39,68.32,68.32,0,0,1,4,10.22,131.9,131.9,0,0,1,3.19,13c.87,4.67,1.7,9.12,2.45,13.18s1.57,7.66,2.36,10.67,1.55,5.41,2.12,7.05c.27.83.53,1.46.67,1.89A5,5,0,0,1,415.16,431.14Z" style="fill:#e0e0e0"></path><path d="M391,388c0,.13-.69.42-1.61.64s-1.69.3-1.72.17.68-.42,1.6-.64S391,387.87,391,388Z" style="fill:#e0e0e0"></path><path d="M389.63,379a6.39,6.39,0,0,1-2.23.24,6.66,6.66,0,0,1-2.24-.06,4.45,4.45,0,0,1,2.22-.42A4.63,4.63,0,0,1,389.63,379Z" style="fill:#e0e0e0"></path><path d="M391.13,370.71c-.09.1-.81-.36-1.61-1s-1.38-1.31-1.29-1.42.8.37,1.6,1.05S391.21,370.61,391.13,370.71Z" style="fill:#e0e0e0"></path><path d="M395.16,363.07c.14,0,.1.67.08,1.45s0,1.43-.16,1.45-.35-.63-.33-1.46S395,363,395.16,363.07Z" style="fill:#e0e0e0"></path><path d="M403.42,366.67c.11.08-.22.73-.73,1.46s-1,1.25-1.12,1.17.22-.72.73-1.45S403.31,366.59,403.42,366.67Z" style="fill:#e0e0e0"></path><path d="M408.77,376c.05.13-.63.53-1.53.89s-1.66.56-1.71.44.63-.52,1.53-.89S408.72,375.85,408.77,376Z" style="fill:#e0e0e0"></path><path d="M412,385.55a4.05,4.05,0,0,1-2.1.91,4,4,0,0,1-2.29.08,8.65,8.65,0,0,1,2.18-.55A8.51,8.51,0,0,1,412,385.55Z" style="fill:#e0e0e0"></path><path d="M397.1,382.83c-.12,0,0-.7.21-1.48s.55-1.37.67-1.33,0,.7-.2,1.48S397.23,382.87,397.1,382.83Z" style="fill:#e0e0e0"></path><path d="M399.19,394.85c-.13-.06.14-1,.59-2s.93-1.85,1.05-1.8a4.75,4.75,0,0,1-.6,2C399.78,394.09,399.31,394.9,399.19,394.85Z" style="fill:#e0e0e0"></path><path d="M394,398.14a5.05,5.05,0,0,1-1.9-.42c-1-.32-1.84-.61-1.81-.75a3.66,3.66,0,0,1,1.95.28C393.32,397.58,394.1,398,394,398.14Z" style="fill:#e0e0e0"></path><path d="M397,407.93c.08.11-.49.65-1.27,1.21s-1.47.91-1.55.8.49-.64,1.27-1.2S396.93,407.82,397,407.93Z" style="fill:#e0e0e0"></path><path d="M399.38,417.7c0,.13-.66.42-1.56.64s-1.65.28-1.68.15.67-.41,1.56-.63S399.35,417.57,399.38,417.7Z" style="fill:#e0e0e0"></path><path d="M412.28,393.71c.07.11-.53.59-1.4.92s-1.64.36-1.67.23.67-.37,1.5-.69S412.21,393.59,412.28,393.71Z" style="fill:#e0e0e0"></path><path d="M414.13,408.91c-.06.12-.78-.1-1.6-.49s-1.45-.8-1.39-.92.77.1,1.6.48S414.18,408.78,414.13,408.91Z" style="fill:#e0e0e0"></path><path d="M417.38,419.78a5,5,0,0,1-2.11-.56c-1.11-.44-2-.89-1.93-1a5,5,0,0,1,2.11.56A5.2,5.2,0,0,1,417.38,419.78Z" style="fill:#e0e0e0"></path><path d="M399.91,428.3c-.07-.12.8-.7,1.8-1.5s1.78-1.49,1.88-1.39-.53,1-1.58,1.78A4.32,4.32,0,0,1,399.91,428.3Z" style="fill:#e0e0e0"></path><path d="M408.51,422.77c-.14,0-.33-.71-.66-1.56s-.68-1.52-.57-1.6.67.5,1,1.42S408.64,422.76,408.51,422.77Z" style="fill:#e0e0e0"></path><path d="M406.23,409.69c-.08.11-.64-.15-1.24-.59s-1-.88-1-1,.63.16,1.24.6S406.3,409.58,406.23,409.69Z" style="fill:#e0e0e0"></path><path d="M426.27,389.19c.08.11-.46.65-1.21,1.2s-1.41.91-1.49.8.46-.64,1.2-1.19S426.19,389.09,426.27,389.19Z" style="fill:#e0e0e0"></path><path d="M429.29,397.45c0,.13-.83.31-1.88.2s-1.84-.47-1.8-.59.85,0,1.85.1A5.58,5.58,0,0,1,429.29,397.45Z" style="fill:#e0e0e0"></path><path d="M416.31,399.31c0,.12-.76.4-1.77.47s-1.83-.1-1.82-.24.81-.18,1.79-.25S416.28,399.17,416.31,399.31Z" style="fill:#e0e0e0"></path><path d="M417.42,391.5c0,.13-.8.15-1.67-.25s-1.37-1-1.28-1.11.69.3,1.49.66S417.44,391.36,417.42,391.5Z" style="fill:#e0e0e0"></path><path d="M430.41,406.32c-.07.11-.89-.27-1.82-.85S427,404.31,427,404.2s.88.27,1.81.85S430.48,406.21,430.41,406.32Z" style="fill:#e0e0e0"></path><rect x="392.81" y="429.5" width="69.28" height="12.28" style="fill:#e0e0e0"></rect><polygon points="397.99 439.34 406.41 476.04 447.7 476.04 456.92 439.34 397.99 439.34" style="fill:#e0e0e0"></polygon><path d="M462.06,441.79c0,.14-15.63.24-34.91.24s-34.9-.1-34.9-.24,15.62-.24,34.9-.24S462.06,441.66,462.06,441.79Z" style="fill:#ebebeb"></path><path d="M423.53,399.57c-.12.07-.59-.48-1.06-1.23s-.76-1.42-.65-1.49.59.48,1.06,1.23S423.64,399.5,423.53,399.57Z" style="fill:#e0e0e0"></path><path d="M423.55,409.45c-.13,0,0-.87.36-1.86s.7-1.75.83-1.71,0,.87-.36,1.86S423.68,409.5,423.55,409.45Z" style="fill:#e0e0e0"></path><path d="M426.93,419.83a5.17,5.17,0,0,1-1.15-1.86,5,5,0,0,1-.72-2.06c.12-.06.64.77,1.16,1.85A5.13,5.13,0,0,1,426.93,419.83Z" style="fill:#e0e0e0"></path><path d="M419.61,428.17c-.1-.09.32-.73.93-1.44s1.19-1.2,1.29-1.11-.31.73-.92,1.43S419.72,428.26,419.61,428.17Z" style="fill:#e0e0e0"></path><path d="M418.08,413c0,.13-.69.12-1.49,0s-1.43-.36-1.4-.49.69-.13,1.48,0S418.1,412.89,418.08,413Z" style="fill:#e0e0e0"></path><rect x="387.13" y="82.12" width="15.61" height="41.94" transform="translate(-12.62 125.45) rotate(-17.77)" style="fill:#e0e0e0"></rect><rect x="383.12" y="83.41" width="15.61" height="41.94" transform="translate(-13.21 124.28) rotate(-17.77)" style="fill:#ebebeb"></rect><path d="M390.59,93.13a3.52,3.52,0,1,1-4.43-2.28A3.53,3.53,0,0,1,390.59,93.13Z" style="fill:#fff"></path><path d="M397.87,86.76a13.47,13.47,0,0,1-.83,3.6,13.32,13.32,0,0,1-1.33,3.44,13.47,13.47,0,0,1,.83-3.6A13.32,13.32,0,0,1,397.87,86.76Z" style="fill:#ebebeb"></path><path d="M399.28,91.18a13.1,13.1,0,0,1-.82,3.59,13.3,13.3,0,0,1-1.33,3.45,13,13,0,0,1,.83-3.6A13.53,13.53,0,0,1,399.28,91.18Z" style="fill:#ebebeb"></path><path d="M400.7,95.6a12.92,12.92,0,0,1-.83,3.59,12.9,12.9,0,0,1-1.33,3.45,14,14,0,0,1,.83-3.6A13.13,13.13,0,0,1,400.7,95.6Z" style="fill:#ebebeb"></path><path d="M402.12,100a13.78,13.78,0,0,1-.83,3.6,13.3,13.3,0,0,1-1.33,3.45,13,13,0,0,1,.83-3.6A13.08,13.08,0,0,1,402.12,100Z" style="fill:#ebebeb"></path><path d="M403.53,104.43a12.87,12.87,0,0,1-.83,3.6,13.51,13.51,0,0,1-1.32,3.45,12.87,12.87,0,0,1,.83-3.6A13.09,13.09,0,0,1,403.53,104.43Z" style="fill:#ebebeb"></path><path d="M405,108.85a13.47,13.47,0,0,1-.83,3.6,13.13,13.13,0,0,1-1.33,3.44,13.84,13.84,0,0,1,.83-3.59A13.3,13.3,0,0,1,405,108.85Z" style="fill:#ebebeb"></path><path d="M406.36,113.27a13.21,13.21,0,0,1-.82,3.6,13.13,13.13,0,0,1-1.33,3.44,12.92,12.92,0,0,1,.83-3.59A13.51,13.51,0,0,1,406.36,113.27Z" style="fill:#ebebeb"></path><path d="M396.58,82.87a13.31,13.31,0,0,1-.83,3.6,13.3,13.3,0,0,1-1.33,3.45,13.87,13.87,0,0,1,.83-3.6A13.49,13.49,0,0,1,396.58,82.87Z" style="fill:#ebebeb"></path><path d="M394.39,81.25a5,5,0,0,1-.39,2.16c-.35,1.15-.75,2-.89,2a4.79,4.79,0,0,1,.39-2.16C393.85,82.11,394.25,81.21,394.39,81.25Z" style="fill:#ebebeb"></path><path d="M415.27,115.14,404.76,79.59s7.37-4,10.95-17c2.37-8.55-1.74-15.49-1.84-18.88-.06-2.07,4.53-3.13,6.57-3.53s5.32-.33,7.55,2.2c4.14,4.68,5,18.78,5,18.78s-.61,3.12,3.11,1.93l13.25-4.24a7.58,7.58,0,0,1,5.25.17A5.63,5.63,0,0,1,458,63.11c1.22,5.17-.71,8.28-.37,9.34S460,74.9,460,78.29s-.83,3.34-.36,4.8a25.16,25.16,0,0,1,1.18,7.82,11.28,11.28,0,0,1-.92,4s2.11,4.68,1.49,7.86c-.81,4.17-8.81,9.33-12.95,8.83-1.93-.23-10.42.42-14.44.68S418.3,112.27,415.27,115.14Z" style="fill:#e0e0e0"></path><path d="M410.65,117.07l-11.44-35.7s7.37-4,11-17a62.65,62.65,0,0,0,2.53-18.32,4.25,4.25,0,0,1,3.37-4.34,6.5,6.5,0,0,1,6.63,2.16c4.13,4.68,4.72,19.07,4.72,19.07s-.61,3.12,3.11,1.93l13.25-4.25a7.59,7.59,0,0,1,5.25.18,5.63,5.63,0,0,1,3.44,4.06c1.22,5.17-.71,8.28-.37,9.34s2.39,2.45,2.31,5.84-.83,3.34-.36,4.8a25.16,25.16,0,0,1,1.18,7.82,11.28,11.28,0,0,1-.92,4s1.92,4.65,1.49,7.86-5.54,6.46-7.4,7-16,2.2-20,2.46S413.68,114.19,410.65,117.07Z" style="fill:#ebebeb"></path><path d="M431.91,53.67a18.17,18.17,0,0,1-1.86,4.49,18.42,18.42,0,0,1-2.57,4.13,29.58,29.58,0,0,1,2.1-4.37A32,32,0,0,1,431.91,53.67Z" style="fill:#ebebeb"></path><path d="M431.1,48.67a12.38,12.38,0,0,1-1.85,4,21,21,0,0,1-2.54,3.63,18,18,0,0,1,2.09-3.9A41,41,0,0,1,431.1,48.67Z" style="fill:#ebebeb"></path><path d="M429.35,44.48a7.37,7.37,0,0,1-1.55,3.27,20.82,20.82,0,0,1-2.21,2.83,9,9,0,0,1,1.78-3.13C428.53,45.87,429.21,44.42,429.35,44.48Z" style="fill:#ebebeb"></path><path d="M426.74,41.36a6.64,6.64,0,0,1-1.16,2.38c-.76,1.24-1.48,2.18-1.61,2.1a7,7,0,0,1,1.17-2.38C425.9,42.22,426.62,41.28,426.74,41.36Z" style="fill:#ebebeb"></path><path d="M423.37,40.1c.11.1-.23.71-.77,1.38s-1.06,1.13-1.17,1,.23-.7.77-1.37S423.27,40,423.37,40.1Z" style="fill:#ebebeb"></path><path d="M432.89,60.29a7.39,7.39,0,0,1-1.24,2.51A7.62,7.62,0,0,1,430,65a7.73,7.73,0,0,1,1.24-2.51A8,8,0,0,1,432.89,60.29Z" style="fill:#ebebeb"></path><path d="M458.45,65.83a26.72,26.72,0,0,1-3,4.24A25.36,25.36,0,0,1,452.11,74a26.2,26.2,0,0,1,3-4.24A25.68,25.68,0,0,1,458.45,65.83Z" style="fill:#ebebeb"></path><path d="M456.3,59.84a9.23,9.23,0,0,1-1.68,2.6,9.09,9.09,0,0,1-2.09,2.28,9.52,9.52,0,0,1,1.68-2.6A9.3,9.3,0,0,1,456.3,59.84Z" style="fill:#ebebeb"></path><path d="M459.2,75.14a20.1,20.1,0,0,1-2.27,3.06,21.41,21.41,0,0,1-2.41,3,10.53,10.53,0,0,1,2-3.27A10.6,10.6,0,0,1,459.2,75.14Z" style="fill:#ebebeb"></path><path d="M459.47,82.63a13.86,13.86,0,0,1-2,3.24,14.21,14.21,0,0,1-2.39,2.93,13.65,13.65,0,0,1,2-3.23A14,14,0,0,1,459.47,82.63Z" style="fill:#ebebeb"></path><path d="M460.53,91.27a13.93,13.93,0,0,1-2.26,3.79,14.25,14.25,0,0,1-3,3.27,29.12,29.12,0,0,1,2.56-3.58A27.55,27.55,0,0,1,460.53,91.27Z" style="fill:#ebebeb"></path><path d="M461,98.65a18.2,18.2,0,0,1-2.7,4.39,18.29,18.29,0,0,1-3.41,3.85,42,42,0,0,1,3-4.16A42,42,0,0,1,461,98.65Z" style="fill:#ebebeb"></path><rect x="62.17" y="120.85" width="34.76" height="12.93" transform="translate(-70.27 136.98) rotate(-61.69)" style="fill:#e0e0e0"></rect><rect x="65.25" y="122.51" width="34.76" height="12.93" transform="translate(-70.11 140.56) rotate(-61.69)" style="fill:#ebebeb"></rect><path d="M84.6,119.86a2.92,2.92,0,1,0,4-1.19A2.92,2.92,0,0,0,84.6,119.86Z" style="fill:#fff"></path><path d="M79.64,113.56a9.38,9.38,0,0,1,.6,3,9.34,9.34,0,0,1,.09,3.06,8.91,8.91,0,0,1-.61-3A8.92,8.92,0,0,1,79.64,113.56Z" style="fill:#ebebeb"></path><path d="M77.81,117a8.83,8.83,0,0,1,.61,3A8.84,8.84,0,0,1,78.5,123a9.19,9.19,0,0,1-.6-3A9.34,9.34,0,0,1,77.81,117Z" style="fill:#ebebeb"></path><path d="M76,120.34a9.19,9.19,0,0,1,.6,3,9.34,9.34,0,0,1,.09,3.06,9.28,9.28,0,0,1-.6-3A9.32,9.32,0,0,1,76,120.34Z" style="fill:#ebebeb"></path><path d="M74.17,123.72a9.28,9.28,0,0,1,.6,3,9.4,9.4,0,0,1,.09,3.07,8.93,8.93,0,0,1-.61-3A8.86,8.86,0,0,1,74.17,123.72Z" style="fill:#ebebeb"></path><path d="M72.34,127.11a8.75,8.75,0,0,1,.61,3,9.17,9.17,0,0,1,.08,3.06,9.28,9.28,0,0,1-.6-3A9.32,9.32,0,0,1,72.34,127.11Z" style="fill:#ebebeb"></path><path d="M70.52,130.49a9.36,9.36,0,0,1,.6,3,9.4,9.4,0,0,1,.09,3.07,9.38,9.38,0,0,1-.6-3A9.34,9.34,0,0,1,70.52,130.49Z" style="fill:#ebebeb"></path><path d="M68.7,133.88a9.28,9.28,0,0,1,.6,3,8.84,8.84,0,0,1,.08,3.06,9.28,9.28,0,0,1-.6-3A8.84,8.84,0,0,1,68.7,133.88Z" style="fill:#ebebeb"></path><path d="M81.28,110.6a9.19,9.19,0,0,1,.6,3,9.34,9.34,0,0,1,.09,3.06,8.83,8.83,0,0,1-.61-3A8.84,8.84,0,0,1,81.28,110.6Z" style="fill:#ebebeb"></path><path d="M83.31,109.6c.14,0,.35.78.46,1.77s.09,1.81,0,1.82-.35-.77-.47-1.76S83.17,109.62,83.31,109.6Z" style="fill:#ebebeb"></path><path d="M61.16,134.05,75.1,106.68s-5.39-4.41-6.35-15.49c-.63-7.32,3.77-12.36,4.37-15.1.37-1.68-3.22-3.23-4.82-3.87a6.68,6.68,0,0,0-6.49.64c-4.08,3.19-6.89,14.55-6.89,14.55s0,2.64-2.82,1.11L41.94,83.05a6.26,6.26,0,0,0-4.3-.66,4.67,4.67,0,0,0-3.42,2.79c-1.78,4-.68,6.85-1.11,7.67s-2.33,1.63-2.77,4.41.17,2.84-.43,4a20.33,20.33,0,0,0-2.15,6.19,9.48,9.48,0,0,0,.15,3.36s-2.43,3.5-2.41,6.18c0,3.52,5.76,8.94,9.21,9.16,1.62.1,8.43,1.92,11.66,2.74S59.12,131.25,61.16,134.05Z" style="fill:#e0e0e0"></path><path d="M64.63,136.32,79.36,109S74,104.56,73,93.48a51.56,51.56,0,0,1,.72-15.31,3.54,3.54,0,0,0-2.09-4,5.38,5.38,0,0,0-5.73.75c-4.08,3.19-6.74,14.82-6.74,14.82s0,2.64-2.82,1.11L46.2,85.34a6.29,6.29,0,0,0-4.31-.66,4.7,4.7,0,0,0-3.42,2.79c-1.77,4-.67,6.85-1.11,7.67S35,96.77,34.59,99.55s.17,2.85-.43,4A20.88,20.88,0,0,0,32,109.7a9.48,9.48,0,0,0,.15,3.36s-2.27,3.5-2.41,6.18,3.54,6.1,5,6.87,12.69,4.21,15.92,5S62.59,133.52,64.63,136.32Z" style="fill:#ebebeb"></path><path d="M56.91,81.44a19.58,19.58,0,0,1,1.3,3.81,20,20,0,0,1,1,3.89,13.21,13.21,0,0,1-1.51-3.74A13.44,13.44,0,0,1,56.91,81.44Z" style="fill:#ebebeb"></path><path d="M58.34,77.49a25.17,25.17,0,0,1,1.34,3.4,12.48,12.48,0,0,1,1.07,3.5,14,14,0,0,1-1.56-3.32A8.94,8.94,0,0,1,58.34,77.49Z" style="fill:#ebebeb"></path><path d="M60.39,74.34a21,21,0,0,1,1.2,2.7,6.84,6.84,0,0,1,.95,2.84,11.77,11.77,0,0,1-1.42-2.62A5.55,5.55,0,0,1,60.39,74.34Z" style="fill:#ebebeb"></path><path d="M63,72.2c.14-.06.6.81,1,1.94a4.83,4.83,0,0,1,.55,2.13c-.14,0-.6-.82-1-1.94A4.86,4.86,0,0,1,63,72.2Z" style="fill:#ebebeb"></path><path d="M65.93,71.68c.12-.07.5.38.84,1s.5,1.2.38,1.26-.51-.39-.84-1S65.8,71.76,65.93,71.68Z" style="fill:#ebebeb"></path><path d="M55.11,86.69a5.39,5.39,0,0,1,1.08,2.07A5.13,5.13,0,0,1,56.77,91a5.56,5.56,0,0,1-1.07-2.07A5.43,5.43,0,0,1,55.11,86.69Z" style="fill:#ebebeb"></path><path d="M33.45,87.33A17.38,17.38,0,0,1,35.64,91a17.19,17.19,0,0,1,1.73,3.93,18.51,18.51,0,0,1-2.19-3.69A18,18,0,0,1,33.45,87.33Z" style="fill:#ebebeb"></path><path d="M36.11,82.78a6.44,6.44,0,0,1,1.39,2.15,6.33,6.33,0,0,1,.94,2.39A6.34,6.34,0,0,1,37,85.17,6.54,6.54,0,0,1,36.11,82.78Z" style="fill:#ebebeb"></path><path d="M31.43,94.8a7.74,7.74,0,0,1,1.8,2.62,7.64,7.64,0,0,1,1.1,3,13.84,13.84,0,0,1-1.56-2.75A13,13,0,0,1,31.43,94.8Z" style="fill:#ebebeb"></path><path d="M30.07,100.87a9.46,9.46,0,0,1,1.55,2.73,9.57,9.57,0,0,1,1.08,3,9.74,9.74,0,0,1-1.55-2.73A9.57,9.57,0,0,1,30.07,100.87Z" style="fill:#ebebeb"></path><path d="M27.9,107.74A18,18,0,0,1,29.6,111a19.08,19.08,0,0,1,1.5,3.32,10.21,10.21,0,0,1-2-3.1A10.24,10.24,0,0,1,27.9,107.74Z" style="fill:#ebebeb"></path><path d="M26.38,113.68a26.43,26.43,0,0,1,2,3.78,26.36,26.36,0,0,1,1.77,3.86,13.27,13.27,0,0,1-2.24-3.64A13.15,13.15,0,0,1,26.38,113.68Z" style="fill:#ebebeb"></path></g><g id="freepik--speech-bubble--inject-32"><path d="M159.3,106.1l9.82-5.57a26.3,26.3,0,1,0-7-6.3h0Z" style="fill:#fff"></path><path d="M159.3,106.1c.16-.69,1-4.38,2.7-11.9a.1.1,0,0,1,.12-.08l0,0h0l-.14.14a26.24,26.24,0,0,1-5.32-12.62,23.66,23.66,0,0,1-.22-4.16c0-.72.06-1.45.12-2.18s.22-1.47.34-2.22A26.51,26.51,0,0,1,167.5,56.67a26,26,0,0,1,10.16-4.45,26.78,26.78,0,0,1,11.7.31,25.79,25.79,0,0,1,10.82,5.64,26.31,26.31,0,0,1,7.24,10.13,26.73,26.73,0,0,1,1.81,11.8A26,26,0,0,1,206,90.92a26.62,26.62,0,0,1-15.37,12.48,28.31,28.31,0,0,1-8.55,1.14,26.13,26.13,0,0,1-13-3.93h.1l-9.87,5.49,9.77-5.65a.09.09,0,0,1,.1,0,26.19,26.19,0,0,0,13,3.82,28.65,28.65,0,0,0,8.45-1.16A26.44,26.44,0,0,0,199,98.65a26.13,26.13,0,0,0,6.73-7.91,25.54,25.54,0,0,0,3.14-10.67,26.63,26.63,0,0,0-1.79-11.62,26.05,26.05,0,0,0-7.14-10,25.47,25.47,0,0,0-10.65-5.56,26.52,26.52,0,0,0-11.54-.32,26,26,0,0,0-10,4.37,26.24,26.24,0,0,0-10.45,16.21c-.12.74-.23,1.47-.34,2.19s-.08,1.45-.13,2.16a24.33,24.33,0,0,0,.19,4.12,26.2,26.2,0,0,0,5.21,12.53.1.1,0,0,1,0,.14.13.13,0,0,1-.12,0h0l.16-.06C160.37,101.74,159.47,105.41,159.3,106.1Z" style="fill:#263238"></path><polygon points="168.07 79.46 171.85 75.69 179.12 82.16 193.41 68.41 196.91 72.18 178.59 89.43 168.07 79.46" style="fill:#8C98A4"></polygon></g></svg>